<svg width="20" height="20" viewBox="0 0 20 20" fill="none" xmlns="http://www.w3.org/2000/svg">
<circle cx="10" cy="10" r="8.75" stroke="white" stroke-width="0.5"/>
<circle cx="10.0253" cy="10.0253" r="6.4" transform="rotate(0.215006 10.0253 10.0253)" stroke="white" stroke-width="0.7"/>
<path d="M14.0668 10.0321C14.0584 12.2688 12.2384 14.0752 10.0017 14.0668C7.76493 14.0584 5.9585 12.2384 5.96689 10.0017C5.97529 7.76492 7.79533 5.95849 10.0321 5.96688C12.2688 5.97528 14.0752 7.79532 14.0668 10.0321Z" stroke="white" stroke-width="0.9"/>
<path d="M11.9084 10.0156C11.9045 11.0649 11.0506 11.9124 10.0013 11.9084C8.95197 11.9045 8.10451 11.0506 8.10845 10.0013C8.11238 8.95196 8.96623 8.1045 10.0156 8.10844C11.0649 8.11238 11.9124 8.96622 11.9084 10.0156Z" stroke="white" stroke-width="0.7"/>
<path d="M10.7292 10.0069C10.7277 10.4073 10.4019 10.7307 10.0015 10.7292C9.60108 10.7277 9.27771 10.4019 9.27921 10.0015C9.28072 9.60109 9.60653 9.27772 10.0069 9.27922C10.4073 9.28072 10.7307 9.60653 10.7292 10.0069Z" stroke="white" stroke-width="0.8"/>
</svg>
